# xmcd CD database file
#
# Track frame offsets:
#	150
#	15203
#	30828
#	47079
#	66866
#	82473
#	98655
#	111592
#	129290
#	150158
#	174114
#	189626
#
# Disc length: 3169 seconds
#
# Revision: 0
# Processed by: cddbd v1.5.2PL0 Copyright (c) Steve Scherf et al.
# Submitted via: CDex 1.51
#
DISCID=880c5f0c
DTITLE=KOLVANE - KILL THESE BLUES
DYEAR=1900
DGENRE=Blues
TTITLE0=DYING ON THE VINE
TTITLE1=BACKSLIDE
TTITLE2=KILL THESE BLUES
TTITLE3=UNDER THE HONEY MOON
TTITLE4=GOODBYE SWEET HARRIET
TTITLE5=SUN SONG
TTITLE6=CARDS
TTITLE7=COOL BABY
TTITLE8=WHIPLASHED
TTITLE9=LETME LOVE YOU TONIGHT
TTITLE10=MEGATON
TTITLE11=SUN SONG (EXTENDED)
EXTD=
EXTT0=
EXTT1=
EXTT2=
EXTT3=
EXTT4=
EXTT5=
EXTT6=
EXTT7=
EXTT8=
EXTT9=
EXTT10=
EXTT11=
PLAYORDER=
